<svg width="101" height="101" viewBox="0 0 101 101" fill="none" xmlns="http://www.w3.org/2000/svg">
<path d="M47.0281 94.6906H53.7509C54.5084 94.6906 55.0766 93.9647 54.8872 93.2703L48.9219 68.1781H39.4531L45.4816 93.4913C45.6709 94.1856 46.3022 94.6906 47.0281 94.6906ZM65.5869 94.6906H58.8641C58.1066 94.6906 57.5384 93.9647 57.7278 93.2703L63.6931 68.1781H73.1619L67.1334 93.4913C66.9441 94.1856 66.3128 94.6906 65.5869 94.6906Z" fill="#533566"/>
<path d="M67.5753 10.0369C69.2481 9.65812 71.0156 9.43718 72.8147 9.46874C84.7453 9.59499 94.5297 19.3162 94.6875 31.2469C94.7337 34.4508 94.0821 37.6264 92.7778 40.5533C91.4736 43.4801 89.5479 46.088 87.1346 48.1959C87.9363 50.3927 88.375 52.763 88.375 55.2375V69.5669C88.375 71.5553 87.9647 73.5438 87.1441 75.3744L79.1903 93.9647C79.0325 94.4066 78.5906 94.6906 78.1172 94.6906H71.2366C70.3844 94.6906 69.8162 93.8069 70.195 93.0494L74.2981 83.486C74.6769 82.6338 74.4875 81.6553 73.8247 80.9925L66.2181 73.386C65.7063 72.8782 65.0138 72.5944 64.2928 72.5969H41.0628V93.4913C41.0628 94.1541 40.5262 94.6906 39.8634 94.6906H32.7619C32.0991 94.6906 31.5625 94.1541 31.5625 93.5228V72.5338C28.1218 72.1967 24.9297 70.5912 22.6077 68.03C20.2856 65.4687 18.9998 62.135 19.0006 58.6778V53.6594C15.6355 53.6594 12.4083 52.3226 10.0288 49.9431C7.64928 47.5636 6.3125 44.3364 6.3125 40.9713V40.2769C6.3125 38.9513 7.38563 37.8781 8.71125 37.8781C9.50031 37.8781 10.1947 37.31 10.3525 36.521C11.5519 30.3663 16.1916 24.401 22.0938 23.0438V14.4903C22.0938 13.291 23.5772 12.7544 24.3662 13.6381L37.1491 27.8728C39.5794 30.6188 41.0628 34.2169 41.0628 38.1622V42.36C41.0628 43.7803 42.5462 44.7272 43.8403 44.096L58.8956 36.7735C61.6731 35.4163 64.7663 34.7219 67.8594 34.7219C74.3739 34.7219 80.1782 37.7582 83.9373 42.4926C86.5812 39.7557 88.1461 36.155 88.3434 32.3547C88.8169 23.2931 81.5575 15.7812 72.5938 15.7812C71.3944 15.7812 70.195 15.9075 69.0587 16.1916C68.4237 16.3318 67.7609 16.2738 67.1598 16.0255C66.5587 15.7772 66.0482 15.3504 65.6973 14.8028C65.6879 14.7933 65.6816 14.787 65.6816 14.7712C65.4037 14.3535 65.2316 13.8745 65.1799 13.3755C65.1282 12.8765 65.1986 12.3724 65.3849 11.9066C65.5712 11.4408 65.8679 11.0273 66.2495 10.7016C66.6311 10.3759 67.086 10.1478 67.5753 10.0369Z" fill="#635994"/>
<path d="M18.9375 36.521C18.9375 35.511 19.6319 34.7188 20.5156 34.7188C21.3994 34.7188 22.0938 35.5488 22.0938 36.521V39.229C22.0938 40.239 21.3994 41.0312 20.5156 41.0312C19.6319 41.0312 18.9375 40.239 18.9375 39.229V36.521ZM10.8575 37.8782C11.615 37.8782 12.0253 38.7303 11.5834 39.33L7.10156 45.3585C6.59656 44.0013 6.3125 42.5178 6.3125 40.9713V40.2769C6.3125 38.9513 7.38563 37.8782 8.71125 37.8782H10.8575Z" fill="#913030"/>
</svg>
